<svg width="1440" height="800" viewBox="0 0 1440 800" fill="none" xmlns="http://www.w3.org/2000/svg">
<rect width="1440" height="800" fill="#07192F"/>
<rect x="1175" y="347" width="265" height="287" fill="#18212D"/>
<g filter="url(#filter0_d_101_5)">
<rect x="1133" y="400" width="265" height="287" fill="#0A253C"/>
</g>
<circle cx="328.5" cy="69.5" r="2.5" fill="#BFC5D3"/>
<circle cx="328.5" cy="119.5" r="2.5" fill="#BFC5D3"/>
<circle cx="328.5" cy="169.5" r="2.5" fill="#BFC5D3"/>
<circle cx="328.5" cy="219.5" r="2.5" fill="#BFC5D3"/>
<circle cx="328.5" cy="269.5" r="2.5" fill="#BFC5D3"/>
<circle cx="328.5" cy="319.5" r="2.5" fill="#BFC5D3"/>
<circle cx="278.5" cy="69.5" r="2.5" fill="#BFC5D3"/>
<circle cx="278.5" cy="119.5" r="2.5" fill="#BFC5D3"/>
<circle cx="278.5" cy="169.5" r="2.5" fill="#BFC5D3"/>
<circle cx="278.5" cy="219.5" r="2.5" fill="#BFC5D3"/>
<circle cx="278.5" cy="269.5" r="2.5" fill="#BFC5D3"/>
<circle cx="278.5" cy="319.5" r="2.5" fill="#BFC5D3"/>
<circle cx="228.5" cy="69.5" r="2.5" fill="#BFC5D3"/>
<circle cx="228.5" cy="119.5" r="2.5" fill="#BFC5D3"/>
<circle cx="228.5" cy="169.5" r="2.5" fill="#BFC5D3"/>
<circle cx="228.5" cy="219.5" r="2.5" fill="#BFC5D3"/>
<circle cx="228.5" cy="269.5" r="2.5" fill="#BFC5D3"/>
<circle cx="228.5" cy="319.5" r="2.5" fill="#BFC5D3"/>
<circle cx="178.5" cy="69.5" r="2.5" fill="#BFC5D3"/>
<circle cx="178.5" cy="119.5" r="2.5" fill="#BFC5D3"/>
<circle cx="178.5" cy="169.5" r="2.5" fill="#BFC5D3"/>
<circle cx="178.5" cy="219.5" r="2.5" fill="#BFC5D3"/>
<circle cx="178.5" cy="269.5" r="2.5" fill="#BFC5D3"/>
<circle cx="178.5" cy="319.5" r="2.5" fill="#BFC5D3"/>
<circle cx="128.5" cy="69.5" r="2.5" fill="#BFC5D3"/>
<circle cx="128.5" cy="119.5" r="2.5" fill="#BFC5D3"/>
<circle cx="128.5" cy="169.5" r="2.5" fill="#BFC5D3"/>
<circle cx="128.5" cy="219.5" r="2.5" fill="#BFC5D3"/>
<circle cx="128.5" cy="269.5" r="2.5" fill="#BFC5D3"/>
<circle cx="128.5" cy="319.5" r="2.5" fill="#BFC5D3"/>
<circle cx="78.5" cy="69.5" r="2.5" fill="#BFC5D3"/>
<circle cx="78.5" cy="119.5" r="2.5" fill="#BFC5D3"/>
<circle cx="78.5" cy="169.5" r="2.5" fill="#BFC5D3"/>
<circle cx="78.5" cy="219.5" r="2.5" fill="#BFC5D3"/>
<circle cx="78.5" cy="269.5" r="2.5" fill="#BFC5D3"/>
<circle cx="78.5" cy="319.5" r="2.5" fill="#BFC5D3"/>
<circle cx="381.5" cy="169.5" r="2.5" fill="#BFC5D3"/>
<circle cx="381.5" cy="219.5" r="2.5" fill="#BFC5D3"/>
<circle cx="381.5" cy="269.5" r="2.5" fill="#BFC5D3"/>
<circle cx="381.5" cy="319.5" r="2.5" fill="#BFC5D3"/>
<circle cx="381.5" cy="369.5" r="2.5" fill="#BFC5D3"/>
<circle cx="381.5" cy="419.5" r="2.5" fill="#BFC5D3"/>
<circle cx="331.5" cy="169.5" r="2.5" fill="#BFC5D3"/>
<circle cx="331.5" cy="219.5" r="2.5" fill="#BFC5D3"/>
<circle cx="331.5" cy="269.5" r="2.5" fill="#BFC5D3"/>
<circle cx="331.5" cy="319.5" r="2.5" fill="#BFC5D3"/>
<circle cx="331.5" cy="369.5" r="2.5" fill="#BFC5D3"/>
<circle cx="331.5" cy="419.5" r="2.5" fill="#BFC5D3"/>
<circle cx="281.5" cy="169.5" r="2.5" fill="#BFC5D3"/>
<circle cx="281.5" cy="219.5" r="2.5" fill="#BFC5D3"/>
<circle cx="281.5" cy="269.5" r="2.5" fill="#BFC5D3"/>
<circle cx="281.5" cy="319.5" r="2.5" fill="#BFC5D3"/>
<circle cx="281.5" cy="369.5" r="2.5" fill="#BFC5D3"/>
<circle cx="281.5" cy="419.5" r="2.5" fill="#BFC5D3"/>
<circle cx="231.5" cy="169.5" r="2.5" fill="#BFC5D3"/>
<circle cx="231.5" cy="219.5" r="2.5" fill="#BFC5D3"/>
<circle cx="231.5" cy="269.5" r="2.5" fill="#BFC5D3"/>
<circle cx="231.5" cy="319.5" r="2.5" fill="#BFC5D3"/>
<circle cx="231.5" cy="369.5" r="2.5" fill="#BFC5D3"/>
<circle cx="231.5" cy="419.5" r="2.5" fill="#BFC5D3"/>
<circle cx="181.5" cy="169.5" r="2.5" fill="#BFC5D3"/>
<circle cx="181.5" cy="219.5" r="2.5" fill="#BFC5D3"/>
<circle cx="181.5" cy="269.5" r="2.5" fill="#BFC5D3"/>
<circle cx="181.5" cy="319.5" r="2.5" fill="#BFC5D3"/>
<circle cx="181.5" cy="369.5" r="2.5" fill="#BFC5D3"/>
<circle cx="181.5" cy="419.5" r="2.5" fill="#BFC5D3"/>
<circle cx="131.5" cy="169.5" r="2.5" fill="#BFC5D3"/>
<circle cx="131.5" cy="219.5" r="2.5" fill="#BFC5D3"/>
<circle cx="131.5" cy="269.5" r="2.5" fill="#BFC5D3"/>
<circle cx="131.5" cy="319.5" r="2.5" fill="#BFC5D3"/>
<circle cx="131.5" cy="369.5" r="2.5" fill="#BFC5D3"/>
<circle cx="131.5" cy="419.5" r="2.5" fill="#BFC5D3"/>
<defs>
<filter id="filter0_d_101_5" x="1109" y="384" width="313" height="335" filterUnits="userSpaceOnUse" color-interpolation-filters="sRGB">
<feFlood flood-opacity="0" result="BackgroundImageFix"/>
<feColorMatrix in="SourceAlpha" type="matrix" values="0 0 0 0 0 0 0 0 0 0 0 0 0 0 0 0 0 0 127 0" result="hardAlpha"/>
<feOffset dy="8"/>
<feGaussianBlur stdDeviation="12"/>
<feComposite in2="hardAlpha" operator="out"/>
<feColorMatrix type="matrix" values="0 0 0 0 0 0 0 0 0 0 0 0 0 0 0 0 0 0 0.15 0"/>
<feBlend mode="normal" in2="BackgroundImageFix" result="effect1_dropShadow_101_5"/>
<feBlend mode="normal" in="SourceGraphic" in2="effect1_dropShadow_101_5" result="shape"/>
</filter>
</defs>
</svg>
