<svg width="1920" height="1150" viewBox="0 0 1920 1150" fill="none" xmlns="http://www.w3.org/2000/svg">
<rect width="1920" height="1150" fill="white"/>
<circle cx="1817.5" cy="47.5" r="2.5" fill="#BFC5D3"/>
<circle cx="1817.5" cy="97.5" r="2.5" fill="#BFC5D3"/>
<circle cx="1817.5" cy="147.5" r="2.5" fill="#BFC5D3"/>
<circle cx="1817.5" cy="197.5" r="2.5" fill="#BFC5D3"/>
<circle cx="1817.5" cy="247.5" r="2.5" fill="#BFC5D3"/>
<circle cx="1817.5" cy="297.5" r="2.5" fill="#BFC5D3"/>
<circle cx="1767.5" cy="47.5" r="2.5" fill="#BFC5D3"/>
<circle cx="1767.5" cy="97.5" r="2.5" fill="#BFC5D3"/>
<circle cx="1767.5" cy="147.5" r="2.5" fill="#BFC5D3"/>
<circle cx="1767.5" cy="197.5" r="2.5" fill="#BFC5D3"/>
<circle cx="1767.5" cy="247.5" r="2.5" fill="#BFC5D3"/>
<circle cx="1767.5" cy="297.5" r="2.5" fill="#BFC5D3"/>
<circle cx="1717.5" cy="47.5" r="2.5" fill="#BFC5D3"/>
<circle cx="1717.5" cy="97.5" r="2.5" fill="#BFC5D3"/>
<circle cx="1717.5" cy="147.5" r="2.5" fill="#BFC5D3"/>
<circle cx="1717.5" cy="197.5" r="2.5" fill="#BFC5D3"/>
<circle cx="1717.5" cy="247.5" r="2.5" fill="#BFC5D3"/>
<circle cx="1717.5" cy="297.5" r="2.5" fill="#BFC5D3"/>
<circle cx="1667.5" cy="47.5" r="2.5" fill="#BFC5D3"/>
<circle cx="1667.5" cy="97.5" r="2.5" fill="#BFC5D3"/>
<circle cx="1667.5" cy="147.5" r="2.5" fill="#BFC5D3"/>
<circle cx="1667.5" cy="197.5" r="2.5" fill="#BFC5D3"/>
<circle cx="1667.5" cy="247.5" r="2.5" fill="#BFC5D3"/>
<circle cx="1667.5" cy="297.5" r="2.5" fill="#BFC5D3"/>
<circle cx="1617.5" cy="47.5" r="2.5" fill="#BFC5D3"/>
<circle cx="1617.5" cy="97.5" r="2.5" fill="#BFC5D3"/>
<circle cx="1617.5" cy="147.5" r="2.5" fill="#BFC5D3"/>
<circle cx="1617.5" cy="197.5" r="2.5" fill="#BFC5D3"/>
<circle cx="1617.5" cy="247.5" r="2.5" fill="#BFC5D3"/>
<circle cx="1617.5" cy="297.5" r="2.5" fill="#BFC5D3"/>
<circle cx="1567.5" cy="47.5" r="2.5" fill="#BFC5D3"/>
<circle cx="1567.5" cy="97.5" r="2.5" fill="#BFC5D3"/>
<circle cx="1567.5" cy="147.5" r="2.5" fill="#BFC5D3"/>
<circle cx="1567.5" cy="197.5" r="2.5" fill="#BFC5D3"/>
<circle cx="1567.5" cy="247.5" r="2.5" fill="#BFC5D3"/>
<circle cx="1567.5" cy="297.5" r="2.5" fill="#BFC5D3"/>
<circle cx="352.5" cy="47.5" r="2.5" fill="#BFC5D3"/>
<circle cx="352.5" cy="97.5" r="2.5" fill="#BFC5D3"/>
<circle cx="352.5" cy="147.5" r="2.5" fill="#BFC5D3"/>
<circle cx="352.5" cy="197.5" r="2.5" fill="#BFC5D3"/>
<circle cx="352.5" cy="247.5" r="2.5" fill="#BFC5D3"/>
<circle cx="352.5" cy="297.5" r="2.5" fill="#BFC5D3"/>
<circle cx="302.5" cy="47.5" r="2.5" fill="#BFC5D3"/>
<circle cx="302.5" cy="97.5" r="2.5" fill="#BFC5D3"/>
<circle cx="302.5" cy="147.5" r="2.5" fill="#BFC5D3"/>
<circle cx="302.5" cy="197.5" r="2.5" fill="#BFC5D3"/>
<circle cx="302.5" cy="247.5" r="2.5" fill="#BFC5D3"/>
<circle cx="302.5" cy="297.5" r="2.5" fill="#BFC5D3"/>
<circle cx="252.5" cy="47.5" r="2.5" fill="#BFC5D3"/>
<circle cx="252.5" cy="97.5" r="2.5" fill="#BFC5D3"/>
<circle cx="252.5" cy="147.5" r="2.5" fill="#BFC5D3"/>
<circle cx="252.5" cy="197.5" r="2.5" fill="#BFC5D3"/>
<circle cx="252.5" cy="247.5" r="2.5" fill="#BFC5D3"/>
<circle cx="252.5" cy="297.5" r="2.5" fill="#BFC5D3"/>
<circle cx="202.5" cy="47.5" r="2.5" fill="#BFC5D3"/>
<circle cx="202.5" cy="97.5" r="2.5" fill="#BFC5D3"/>
<circle cx="202.5" cy="147.5" r="2.5" fill="#BFC5D3"/>
<circle cx="202.5" cy="197.5" r="2.5" fill="#BFC5D3"/>
<circle cx="202.5" cy="247.5" r="2.5" fill="#BFC5D3"/>
<circle cx="202.5" cy="297.5" r="2.5" fill="#BFC5D3"/>
<circle cx="152.5" cy="47.5" r="2.5" fill="#BFC5D3"/>
<circle cx="152.5" cy="97.5" r="2.5" fill="#BFC5D3"/>
<circle cx="152.5" cy="147.5" r="2.5" fill="#BFC5D3"/>
<circle cx="152.5" cy="197.5" r="2.5" fill="#BFC5D3"/>
<circle cx="152.5" cy="247.5" r="2.5" fill="#BFC5D3"/>
<circle cx="152.5" cy="297.5" r="2.5" fill="#BFC5D3"/>
<circle cx="102.5" cy="47.5" r="2.5" fill="#BFC5D3"/>
<circle cx="102.5" cy="97.5" r="2.5" fill="#BFC5D3"/>
<circle cx="102.5" cy="147.5" r="2.5" fill="#BFC5D3"/>
<circle cx="102.5" cy="197.5" r="2.5" fill="#BFC5D3"/>
<circle cx="102.5" cy="247.5" r="2.5" fill="#BFC5D3"/>
<circle cx="102.5" cy="297.5" r="2.5" fill="#BFC5D3"/>
<circle cx="1817.5" cy="852.5" r="2.5" fill="#BFC5D3"/>
<circle cx="1817.5" cy="902.5" r="2.5" fill="#BFC5D3"/>
<circle cx="1817.5" cy="952.5" r="2.5" fill="#BFC5D3"/>
<circle cx="1817.5" cy="1002.5" r="2.5" fill="#BFC5D3"/>
<circle cx="1817.5" cy="1052.5" r="2.5" fill="#BFC5D3"/>
<circle cx="1817.5" cy="1102.5" r="2.5" fill="#BFC5D3"/>
<circle cx="1767.5" cy="852.5" r="2.5" fill="#BFC5D3"/>
<circle cx="1767.5" cy="902.5" r="2.5" fill="#BFC5D3"/>
<circle cx="1767.5" cy="952.5" r="2.5" fill="#BFC5D3"/>
<circle cx="1767.5" cy="1002.5" r="2.5" fill="#BFC5D3"/>
<circle cx="1767.5" cy="1052.5" r="2.5" fill="#BFC5D3"/>
<circle cx="1767.5" cy="1102.5" r="2.5" fill="#BFC5D3"/>
<circle cx="1717.5" cy="852.5" r="2.5" fill="#BFC5D3"/>
<circle cx="1717.5" cy="902.5" r="2.5" fill="#BFC5D3"/>
<circle cx="1717.5" cy="952.5" r="2.5" fill="#BFC5D3"/>
<circle cx="1717.5" cy="1002.5" r="2.5" fill="#BFC5D3"/>
<circle cx="1717.5" cy="1052.5" r="2.5" fill="#BFC5D3"/>
<circle cx="1717.5" cy="1102.5" r="2.5" fill="#BFC5D3"/>
<circle cx="1667.5" cy="852.5" r="2.5" fill="#BFC5D3"/>
<circle cx="1667.5" cy="902.5" r="2.5" fill="#BFC5D3"/>
<circle cx="1667.5" cy="952.5" r="2.5" fill="#BFC5D3"/>
<circle cx="1667.5" cy="1002.5" r="2.5" fill="#BFC5D3"/>
<circle cx="1667.5" cy="1052.5" r="2.5" fill="#BFC5D3"/>
<circle cx="1667.5" cy="1102.5" r="2.5" fill="#BFC5D3"/>
<circle cx="1617.5" cy="852.5" r="2.5" fill="#BFC5D3"/>
<circle cx="1617.5" cy="902.5" r="2.5" fill="#BFC5D3"/>
<circle cx="1617.5" cy="952.5" r="2.5" fill="#BFC5D3"/>
<circle cx="1617.5" cy="1002.5" r="2.5" fill="#BFC5D3"/>
<circle cx="1617.5" cy="1052.5" r="2.5" fill="#BFC5D3"/>
<circle cx="1617.5" cy="1102.5" r="2.5" fill="#BFC5D3"/>
<circle cx="1567.5" cy="852.5" r="2.5" fill="#BFC5D3"/>
<circle cx="1567.5" cy="902.5" r="2.5" fill="#BFC5D3"/>
<circle cx="1567.5" cy="952.5" r="2.5" fill="#BFC5D3"/>
<circle cx="1567.5" cy="1002.5" r="2.5" fill="#BFC5D3"/>
<circle cx="1567.5" cy="1052.5" r="2.5" fill="#BFC5D3"/>
<circle cx="1567.5" cy="1102.5" r="2.5" fill="#BFC5D3"/>
<circle cx="352.5" cy="852.5" r="2.5" fill="#BFC5D3"/>
<circle cx="352.5" cy="902.5" r="2.5" fill="#BFC5D3"/>
<circle cx="352.5" cy="952.5" r="2.5" fill="#BFC5D3"/>
<circle cx="352.5" cy="1002.5" r="2.5" fill="#BFC5D3"/>
<circle cx="352.5" cy="1052.5" r="2.5" fill="#BFC5D3"/>
<circle cx="352.5" cy="1102.5" r="2.5" fill="#BFC5D3"/>
<circle cx="302.5" cy="852.5" r="2.5" fill="#BFC5D3"/>
<circle cx="302.5" cy="902.5" r="2.5" fill="#BFC5D3"/>
<circle cx="302.5" cy="952.5" r="2.5" fill="#BFC5D3"/>
<circle cx="302.5" cy="1002.5" r="2.5" fill="#BFC5D3"/>
<circle cx="302.5" cy="1052.5" r="2.5" fill="#BFC5D3"/>
<circle cx="302.5" cy="1102.5" r="2.5" fill="#BFC5D3"/>
<circle cx="252.5" cy="852.5" r="2.5" fill="#BFC5D3"/>
<circle cx="252.5" cy="902.5" r="2.5" fill="#BFC5D3"/>
<circle cx="252.5" cy="952.5" r="2.5" fill="#BFC5D3"/>
<circle cx="252.5" cy="1002.5" r="2.5" fill="#BFC5D3"/>
<circle cx="252.5" cy="1052.5" r="2.5" fill="#BFC5D3"/>
<circle cx="252.5" cy="1102.5" r="2.5" fill="#BFC5D3"/>
<circle cx="202.5" cy="852.5" r="2.5" fill="#BFC5D3"/>
<circle cx="202.5" cy="902.5" r="2.5" fill="#BFC5D3"/>
<circle cx="202.5" cy="952.5" r="2.5" fill="#BFC5D3"/>
<circle cx="202.5" cy="1002.5" r="2.5" fill="#BFC5D3"/>
<circle cx="202.5" cy="1052.5" r="2.5" fill="#BFC5D3"/>
<circle cx="202.5" cy="1102.5" r="2.5" fill="#BFC5D3"/>
<circle cx="152.5" cy="852.5" r="2.5" fill="#BFC5D3"/>
<circle cx="152.5" cy="902.5" r="2.5" fill="#BFC5D3"/>
<circle cx="152.5" cy="952.5" r="2.5" fill="#BFC5D3"/>
<circle cx="152.5" cy="1002.5" r="2.5" fill="#BFC5D3"/>
<circle cx="152.5" cy="1052.5" r="2.5" fill="#BFC5D3"/>
<circle cx="152.5" cy="1102.5" r="2.5" fill="#BFC5D3"/>
<circle cx="102.5" cy="852.5" r="2.5" fill="#BFC5D3"/>
<circle cx="102.5" cy="902.5" r="2.5" fill="#BFC5D3"/>
<circle cx="102.5" cy="952.5" r="2.5" fill="#BFC5D3"/>
<circle cx="102.5" cy="1002.5" r="2.5" fill="#BFC5D3"/>
<circle cx="102.5" cy="1052.5" r="2.5" fill="#BFC5D3"/>
<circle cx="102.5" cy="1102.5" r="2.5" fill="#BFC5D3"/>
</svg>
